<svg  id="logo-footer" xmlns="http://www.w3.org/2000/svg" viewBox="0 0 269.2 64">
	<path d="M268.9,41.8l-9.4-20.4c-1.1-2.2-2.5-3.2-4.6-3.2h-0.4c-2.2,0-3.7,1-4.7,3.2l-9.4,20.4c-0.9,2-0.3,3.8,1.6,4.5c1.5,0.7,3.4,0.1,4.1-1.4c0,0,0,0,0,0l0.1-0.2l2.1-4.4c2.1,0.7,4.2,1,6.4,1c2.1,0,4.2-0.3,6.2-1l2,4.4c0.8,1.7,2.7,2.4,4.4,1.6C268.9,45.5,269.6,43.5,268.9,41.8L268.9,41.8z M254.7,35c-1.4,0-2.8-0.2-4.1-0.5l4-8.9l4,8.9C257.4,34.8,256.1,35,254.7,35z"></path>
	<path d="M234.3,40.1h-14.3l14.1-12.7c2-1.8,2.8-3.3,2.8-5.2v-0.3c0-2.4-1.4-3.7-4-3.7H215c-1.8-0.1-3.3,1.3-3.4,3c0,0.1,0,0.2,0,0.3c-0.1,1.7,1.2,3.1,2.9,3.2c0.2,0,0.3,0,0.5,0h13.2L214.6,37c-2.7,2.4-3.3,3.8-3.3,5.5v0.3c0,2.3,1.5,3.7,4,3.7h19.1c1.8,0.1,3.3-1.2,3.4-3c0-0.1,0-0.2,0-0.4c0.1-1.7-1.2-3.2-2.9-3.2C234.6,40,234.5,40,234.3,40.1"></path>
	<path d="M204.4,40.1h-14.3l14.2-12.7c2-1.8,2.8-3.3,2.8-5.2v-0.3c0-2.4-1.4-3.7-4-3.7h-18c-1.8-0.1-3.3,1.2-3.4,3c0,0.1,0,0.2,0,0.3c-0.1,1.7,1.2,3.1,2.9,3.2c0.2,0,0.3,0,0.5,0h13.2L184.7,37c-2.7,2.4-3.3,3.8-3.3,5.5v0.3c0,2.3,1.5,3.7,4,3.7h19.1c1.8,0.1,3.3-1.2,3.4-3c0-0.1,0-0.2,0-0.3c0.1-1.7-1.2-3.2-2.9-3.2C204.8,40.1,204.6,40.1,204.4,40.1"></path>
	<path d="M172.1,17.9c-1.8-0.1-3.4,1.3-3.5,3.1c0,0,0,0,0,0c0,0.1,0,0.2,0,0.3v22c0,2,1.6,3.6,3.6,3.6s3.6-1.6,3.6-3.6v-22c0.1-1.8-1.4-3.4-3.2-3.5L172.1,17.9"></path>
	<path d="M153.2,18.2h-11.5c-1.8-0.1-3.3,1.3-3.4,3.1c0,0.1,0,0.2,0,0.3v21.9c-0.1,1.8,1.3,3.3,3.1,3.4h0.3c1.8,0.1,3.3-1.3,3.4-3.1c0-0.1,0-0.2,0-0.3v-5.2h8c6.2,0,10.1-4.4,10.1-10.1S159.4,18.2,153.2,18.2z M153.2,31.8h-8v-7.2h8c1.8-0.1,3.4,1.4,3.5,3.2c0,0.1,0,0.3,0,0.4c0.2,1.8-1.2,3.4-3,3.6L153.2,31.8L153.2,31.8z"></path>
	<path d="M110.5,17.9c-7.9-0.2-14.4,6-14.6,13.9c0,0.2,0,0.4,0,0.6c-0.2,7.8,6,14.3,13.9,14.5h0.6c7.9,0.1,14.4-6.2,14.6-14.1c0-0.1,0-0.3,0-0.5c0.1-7.8-6.1-14.3-13.9-14.4C110.9,17.9,110.7,17.9,110.5,17.9z M110.5,40.4c-4.2,0.1-7.7-3.3-7.8-7.5c0-0.2,0-0.3,0-0.5c-0.1-4.3,3.3-7.8,7.6-7.9c4.2-0.1,7.7,3.2,7.9,7.4c0,0.2,0,0.3,0,0.5C118.3,37,115.2,40.4,110.5,40.4z"></path>
	<path d="M77.6,18.2h-9.3c-1.9,0-3.4,1.4-3.4,3.3c0,0.1,0,0.2,0,0.2v21.5c-0.1,1.8,1.3,3.3,3.1,3.4c0,0,0,0,0,0h9.6c8.3,0,14.7-5.8,14.7-14.3S85.9,18.2,77.6,18.2z M77.6,40h-5.9V24.8h5.9c4.7,0,7.9,2.8,7.9,7.5S82.3,40,77.6,40L77.6,40z"></path>
	<path d="M45.7,17.9c-7.9-0.2-14.4,6-14.6,13.9c0,0.2,0,0.4,0,0.6c-0.1,7.9,6.1,14.3,14,14.5c0,0,0,0,0,0h0.6c7.9,0.1,14.4-6.2,14.6-14.1c0-0.1,0-0.3,0-0.4c0.1-7.8-6.1-14.3-13.9-14.4C46.1,17.9,45.9,17.9,45.7,17.9z M45.7,40.4c-4.2,0.1-7.7-3.3-7.8-7.5c0-0.2,0-0.3,0-0.5c-0.1-4.3,3.3-7.8,7.6-7.9c4.2-0.1,7.8,3.2,7.9,7.4c0,0.2,0,0.3,0,0.5C53.4,37,50.4,40.4,45.7,40.4L45.7,40.4z"></path>
	<path d="M12.7,18.2H3.5c-1.9,0-3.4,1.4-3.4,3.3c0,0.1,0,0.2,0,0.2v21.5c-0.1,1.8,1.2,3.3,3,3.4c0,0,0.1,0,0.1,0h9.7c8.3,0,14.7-5.8,14.7-14.3S21.1,18.2,12.7,18.2z M12.7,40H6.9V24.8h5.9c4.7,0,7.9,2.8,7.9,7.5S17.5,40,12.7,40L12.7,40z"></path>
</svg>